<svg width="31" height="36" viewBox="0 0 31 36" fill="none" xmlns="http://www.w3.org/2000/svg">
<g clip-path="url(#clip0)">
<path d="M29.9404 4.25391C30.5247 4.25391 31 3.70188 31 3.02344V1.23047C31 0.552023 30.5247 0 29.9404 0H1.05957C0.475357 0 3.68228e-06 0.552023 3.68228e-06 1.23047V3.02344C-0.00157054 3.7158 0.501816 4.28302 1.10135 4.25391V20.8514C0.464035 21.0815 3.68228e-06 21.7728 3.68228e-06 22.5877C3.68228e-06 23.4025 0.464035 24.0938 1.10135 24.324V31.7461H1.05957C0.475357 31.7461 3.68228e-06 32.2981 3.68228e-06 32.9766V34.7695C3.68228e-06 35.448 0.475357 36 1.05957 36H29.9404C30.5247 36 31 35.448 31 34.7695V32.9766C31 32.2981 30.5247 31.7461 29.9404 31.7461H29.8987V24.324C30.536 24.0938 31 23.4025 31 22.5877C31 21.7728 30.536 21.0815 29.8987 20.8514V4.25391H29.9404ZM0.908207 22.5877C0.908207 22.1669 1.20301 21.8245 1.56538 21.8245H4.49791C4.86022 21.8245 5.15509 22.1669 5.15509 22.5877C5.15509 23.0085 4.86028 23.3509 4.49791 23.3509H1.56538C1.20301 23.3509 0.908207 23.0085 0.908207 22.5877ZM8.96457 7.45664C9.48528 7.45664 10.0002 7.3305 10.4772 7.08933C10.6245 7.40377 10.7915 7.7033 10.9767 7.98497C10.3481 8.33034 9.66183 8.51133 8.96457 8.51133C7.81303 8.51133 6.69703 8.01647 5.82207 7.11795C5.08624 6.36237 4.55755 5.3614 4.29877 4.25391H5.24663C5.79428 6.15916 7.27683 7.45664 8.96457 7.45664ZM6.21974 4.25391H9.76113C9.8026 4.90795 9.92091 5.53669 10.1047 6.12745C9.74448 6.30773 9.35655 6.40195 8.96457 6.40195C7.77168 6.40195 6.71066 5.54597 6.21974 4.25391ZM15.5 8.51133C17.5253 8.51133 19.1978 6.64495 19.4147 4.25391H20.3267C20.1272 7.15472 17.9749 9.49015 15.5 9.52509C13.2164 9.5573 10.9396 7.79906 10.6734 4.25391H11.5853C11.8022 6.64495 13.4747 8.51133 15.5 8.51133ZM12.4999 4.25391H18.5001C18.2912 6.06171 17.0258 7.45664 15.5 7.45664C13.9742 7.45664 12.7088 6.06171 12.4999 4.25391ZM22.0354 7.45664C23.7231 7.45664 25.2057 6.15916 25.7534 4.25391H26.7012C26.4424 5.3614 25.9137 6.36237 25.178 7.11795C24.303 8.01647 23.187 8.51133 22.0355 8.51133C21.3379 8.51133 20.6515 8.33041 20.0233 7.98511C20.2086 7.70337 20.3755 7.40377 20.5229 7.08926C21.0003 7.33043 21.5152 7.45664 22.0354 7.45664ZM20.8953 6.12731C21.0792 5.53662 21.1974 4.90795 21.2389 4.25391H24.7803C24.2894 5.54597 23.2283 6.40195 22.0354 6.40195C21.6438 6.40195 21.2559 6.30766 20.8953 6.12731ZM24.4396 16.3517C23.3891 14.2481 22.7046 11.9626 22.4004 9.55041C23.5449 9.46322 24.6432 8.96892 25.5508 8.12988C25.3796 10.185 25.4773 12.2335 25.8453 14.2391C26.2707 16.5582 27.0398 18.7506 28.1344 20.7698H27.4857C26.2821 19.4744 25.2574 17.9893 24.4396 16.3517ZM26.2138 20.8013C25.9322 20.8624 25.677 21.0113 25.4699 21.2228C23.7091 19.9659 22.4005 17.9137 21.7673 16.7806C20.4744 14.4674 19.6291 11.8344 19.2501 8.95219C19.299 8.90184 19.347 8.85038 19.3944 8.79813C20.0436 9.20004 20.7521 9.44944 21.481 9.5336C21.7908 12.1414 22.5205 14.6112 23.654 16.8808C24.3648 18.3042 25.2236 19.6183 26.2138 20.8013ZM26.7336 14.0194C26.3026 11.671 26.2626 9.25945 26.6127 6.8497C27.1013 6.08168 27.4515 5.19673 27.6369 4.25391H28.9904V20.3652C27.9067 18.4077 27.1476 16.2769 26.7336 14.0194ZM5.44916 8.12988C6.35676 8.96906 7.45502 9.46329 8.59966 9.55048C8.29535 11.9626 7.61093 14.2482 6.56038 16.3517C5.74263 17.9894 4.71794 19.4745 3.5142 20.7698H2.86551C3.96019 18.7507 4.72926 16.5583 5.1546 14.2392C5.52267 12.2337 5.62033 10.1851 5.44916 8.12988ZM4.38735 6.8497C4.73725 9.2598 4.69729 11.6714 4.26644 14.0195C3.85236 16.2769 3.09328 18.4077 2.00962 20.3652V4.25391H3.36314C3.54847 5.19673 3.89868 6.08161 4.38735 6.8497ZM3.21002 24.4055H3.81458C4.38935 25.6873 4.94456 26.9991 5.46624 28.3102C5.85852 29.297 6.33726 30.6231 6.73263 31.7461H4.78666C4.66956 30.9446 4.53321 30.1287 4.37772 29.3123C4.06215 27.6603 3.66999 26.0131 3.21002 24.4055ZM3.8658 31.7461H2.00955V24.4055H2.25071C2.74278 26.0842 3.16031 27.8094 3.49095 29.5404C3.63179 30.2795 3.75706 31.0186 3.8658 31.7461ZM29.9404 32.8008C30.0239 32.8008 30.0918 32.8797 30.0918 32.9766V34.7695C30.0918 34.8664 30.0239 34.9453 29.9404 34.9453H1.05957C0.97608 34.9453 0.908207 34.8664 0.908207 34.7695V32.9766C0.908207 32.8797 0.97608 32.8008 1.05957 32.8008H18.568C18.8189 32.8008 19.0221 32.5647 19.0221 32.2734C19.0221 31.9822 18.8189 31.7461 18.568 31.7461H7.71325C7.2916 30.5402 6.73766 28.9922 6.2907 27.868C5.82371 26.6943 5.33007 25.52 4.81978 24.3667C5.52896 24.1938 6.06317 23.4619 6.06317 22.5877C6.06317 22.4254 6.04452 22.2681 6.00995 22.1183C7.92062 20.752 9.31956 18.5624 9.99448 17.3547C10.3895 16.648 10.7502 15.9012 11.0665 15.1351C11.175 14.8725 11.0795 14.5576 10.8534 14.4316C10.6272 14.3058 10.356 14.4165 10.2476 14.6791C9.94804 15.4046 9.60655 16.1116 9.23261 16.7806C8.59917 17.914 7.29003 19.9672 5.52999 21.2229C5.32298 21.0115 5.06772 20.8626 4.78605 20.8013C5.77624 19.6183 6.63503 18.3043 7.34591 16.8808C8.47935 14.6112 9.20906 12.1414 9.51888 9.5336C10.2475 9.44944 10.956 9.19997 11.6054 8.79806C11.653 8.85044 11.7011 8.90198 11.7501 8.95247C11.5915 10.1561 11.3482 11.3332 11.0238 12.4549C10.944 12.7311 11.072 13.03 11.3097 13.1228C11.5415 13.2132 11.8039 13.0702 11.8847 12.7908C12.1765 11.7823 12.4054 10.7317 12.57 9.65834C13.4288 10.2693 14.4307 10.6208 15.4999 10.6208C16.5692 10.6208 17.5711 10.2693 18.4299 9.65827C18.8604 12.4765 19.7242 15.0626 21.0054 17.3548C21.6801 18.5621 23.0784 20.7508 24.9899 22.1183C24.9554 22.2681 24.9367 22.4254 24.9367 22.5877C24.9367 23.462 25.4709 24.1939 26.1801 24.3668C25.6698 25.5201 25.1762 26.6944 24.7091 27.8682C24.2622 28.9923 23.7083 30.5403 23.2866 31.7462H20.6871C20.4362 31.7462 20.233 31.9823 20.233 32.2735C20.233 32.5647 20.4362 32.8009 20.6871 32.8009H29.9404V32.8008ZM26.6222 29.3126C26.4667 30.1287 26.3304 30.9446 26.2133 31.7461H24.2674C24.6627 30.6231 25.1415 29.297 25.5337 28.3103C26.0554 26.9992 26.6106 25.6873 27.1854 24.4055H27.79C27.33 26.0132 26.9379 27.6603 26.6222 29.3126ZM28.7493 24.4055H28.9905V31.7461H27.1343C27.243 31.0186 27.3682 30.2796 27.509 29.5407C27.8397 27.8094 28.2572 26.0842 28.7493 24.4055ZM30.0918 22.5877C30.0918 23.0085 29.797 23.3509 29.4346 23.3509H26.5021C26.1398 23.3509 25.8449 23.0085 25.8449 22.5877C25.8449 22.1669 26.1397 21.8245 26.5021 21.8245H29.4346C29.797 21.8245 30.0918 22.1669 30.0918 22.5877ZM1.05957 3.19922C0.97608 3.19922 0.908207 3.12033 0.908207 3.02344V1.23047C0.908207 1.13358 0.97608 1.05469 1.05957 1.05469H29.9404C30.0239 1.05469 30.0918 1.13358 30.0918 1.23047V3.02344C30.0918 3.12033 30.0239 3.19922 29.9404 3.19922H1.05957Z" fill="white"/>
</g>
<defs>
<clipPath id="clip0">
<rect width="31" height="36" fill="white"/>
</clipPath>
</defs>
</svg>
