<svg width="36" height="37" viewBox="0 0 36 37" fill="none" xmlns="http://www.w3.org/2000/svg">
<path d="M14.6699 29.2087L23.8817 32.8223L23.8824 32.8223C27.2586 31.938 30.2432 29.9944 32.4945 27.2431L30.8696 22.7092C26.7474 27.5249 20.684 29.9018 14.6699 29.2087Z" fill="white"/>
<path d="M26.998 34.0448L34.0563 36.8144C34.8993 37.1454 35.7331 36.2826 35.4139 35.3939L33.3202 29.551C31.5021 31.5108 29.3355 33.0311 26.998 34.0448Z" fill="white"/>
<path d="M13.8096 21.4619L9.87305 25.5807C17.0728 28.9202 25.302 26.6372 30.0185 20.3364L28.4429 15.9402C24.6322 19.8011 19.3131 21.8894 13.8096 21.4619Z" fill="white"/>
<path d="M15.8691 19.3066C20.3443 19.1374 24.5733 17.0983 27.6212 13.6482L27.6212 13.6475L26.4667 10.4254C26.1967 9.67286 25.2736 9.46688 24.7329 10.0326L15.8691 19.3066Z" fill="white"/>
<path d="M19.1829 11.2471C19.5947 10.8162 19.5947 10.1175 19.1829 9.68657C15.2152 5.53519 16.4419 1.49291 16.4547 1.45252C16.6388 0.874382 16.3402 0.249453 15.7877 0.0567149C15.2353 -0.136097 14.6379 0.176478 14.4537 0.75462C14.3844 0.972222 12.8122 6.14188 17.6914 11.247C18.1032 11.678 18.7711 11.6781 19.1829 11.2471Z" fill="white"/>
<path d="M10.9795 18.2705C6.10084 13.1653 1.15957 14.8109 0.95146 14.883C0.398837 15.0757 0.10073 15.701 0.284938 16.2792C0.469146 16.8567 1.06606 17.1693 1.61869 16.9766C1.65736 16.9633 5.52079 15.6797 9.48829 19.8315C9.89755 20.2597 10.5648 20.2641 10.9795 19.8315C11.3935 19.3983 11.3903 18.7003 10.9795 18.2705Z" fill="white"/>
<path d="M4.26714 9.68727C3.85528 9.25626 3.18756 9.25626 2.7757 9.68727C2.36383 10.1183 2.36383 10.817 2.7757 11.248C3.18756 11.679 3.85528 11.679 4.26714 11.248C4.67901 10.817 4.67901 10.1183 4.26714 9.68727Z" fill="white"/>
<path d="M12.0331 2.66492C12.0331 2.05539 11.5609 1.56128 10.9785 1.56128C10.396 1.56128 9.92383 2.05539 9.92383 2.66492C9.92383 3.27444 10.396 3.76855 10.9785 3.76855C11.5609 3.76855 12.0331 3.27444 12.0331 2.66492Z" fill="white"/>
<path d="M20.6741 5.00585C21.086 5.43685 21.7537 5.43685 22.1656 5.00585C22.5775 4.57484 22.5775 3.87609 22.1656 3.44508C21.7537 3.01407 21.086 3.01407 20.6741 3.44508C20.2623 3.87602 20.2623 4.57484 20.6741 5.00585Z" fill="white"/>
<path d="M5.75933 20.6103C5.34747 20.1794 4.67975 20.1794 4.26788 20.6103C3.85602 21.0413 3.85602 21.74 4.26788 22.1709C4.67968 22.6019 5.34747 22.6019 5.75933 22.1709C6.1712 21.74 6.1712 21.0412 5.75933 20.6103Z" fill="white"/>
<path d="M13.7321 15.9288C14.144 16.3597 14.8117 16.3597 15.2236 15.9288C15.6317 15.5018 15.6371 14.808 15.2299 14.3748C14.9584 13.8047 15.9766 12.0354 15.0371 11.0521C14.1074 10.0793 12.4507 11.1128 11.8701 10.8547C11.6228 10.2464 12.611 8.51368 11.6814 7.54095C10.7516 6.568 9.09497 7.60157 8.51429 7.34343C8.26688 6.73425 9.25527 5.00249 8.32558 4.02976C7.39583 3.05681 5.73915 4.09037 5.15848 3.83224C4.91233 3.22666 5.89847 1.49056 4.9697 0.518418C4.03017 -0.464466 2.3361 0.598896 1.79409 0.316926C1.3818 -0.107536 0.718725 -0.105257 0.308898 0.323473C-0.102967 0.754334 -0.102967 1.45304 0.308899 1.88398C1.14015 2.75372 2.31367 2.58357 3.15266 2.41974C2.99608 3.29758 2.83346 4.52536 3.66464 5.3951C4.49589 6.26484 5.66941 6.09469 6.5084 5.93086C6.35189 6.8087 6.18913 8.03662 7.02045 8.90629C7.85171 9.77603 9.02522 9.60581 9.86421 9.44198C9.70763 10.32 9.54494 11.5477 10.3762 12.4174C11.2074 13.2872 12.381 13.117 13.2199 12.9532C13.0635 13.8311 12.9009 15.0591 13.7321 15.9288Z" fill="white"/>
</svg>
