<svg width="44" height="40" viewBox="0 0 44 40" fill="none" xmlns="http://www.w3.org/2000/svg">
<path d="M38.1225 0H6.06624C3.24582 0 0 2.8681 0 5.63267V27.8719C0 30.4179 2.75007 32.2565 5.38793 32.5403L3.67123 40L14.6715 32.592H38.1225C40.9429 32.592 43.5456 30.6346 43.5456 27.8719V9.87922V5.63267C43.5456 2.8681 40.9412 0 38.1225 0ZM10.9567 18.773C9.35728 18.773 8.06096 17.2891 8.06096 15.4582C8.06096 13.6273 9.35728 12.1434 10.9567 12.1434C12.5545 12.1434 13.8525 13.6273 13.8525 15.4582C13.8525 17.2891 12.5545 18.773 10.9567 18.773ZM21.7728 18.773C20.1733 18.773 18.877 17.2891 18.877 15.4582C18.877 13.6273 20.1733 12.1434 21.7728 12.1434C23.3723 12.1434 24.6686 13.6273 24.6686 15.4582C24.6686 17.2891 23.3723 18.773 21.7728 18.773ZM32.5905 18.773C30.9911 18.773 29.6931 17.2891 29.6931 15.4582C29.6931 13.6273 30.9911 12.1434 32.5905 12.1434C34.1866 12.1434 35.4863 13.6273 35.4863 15.4582C35.4863 17.2891 34.1866 18.773 32.5905 18.773Z" fill="white"/>
</svg>
