<svg width="42" height="48" viewBox="0 0 42 48" fill="none" xmlns="http://www.w3.org/2000/svg">
<path d="M40.9307 12.2692C40.2376 11.0662 39.2376 10.0415 38 9.3236C37.9951 9.31852 37.9901 9.31852 37.9852 9.31369L24.3267 1.42746C24.3069 1.41755 24.2921 1.40764 24.2723 1.39773C21.7871 -0.00813475 18.7376 0.00177544 16.2723 1.44245L4.1584 8.48192L4.04455 8.54622C2.80692 9.26414 1.81187 10.2789 1.12374 11.4771C0.445527 12.6405 0.0643291 13.9821 0.0445383 15.373V15.4721L0 31.1653V31.1947C0 34.0464 1.51978 36.685 3.98019 38.1254C3.99503 38.1356 4.00494 38.1404 4.0198 38.1503L7.76238 40.3087L17.6782 46.0315C18.9257 46.7542 20.3218 47.1108 21.7129 47.1108C23.104 47.1057 24.4901 46.7395 25.7327 46.0216L37.9604 38.9176C37.9654 38.9127 37.9703 38.9127 37.9752 38.9077C40.4307 37.4721 41.9505 34.8433 41.9555 31.9919L42 16.2988V16.269C42 14.8434 41.6188 13.4672 40.9307 12.2692Z" fill="white"/>
<path d="M21.0266 8.42432C19.1124 8.42432 17.5605 9.40837 17.5605 10.6223C17.5605 11.836 19.1124 12.8201 21.0266 12.8201C22.9408 12.8201 24.4926 11.836 24.4926 10.6223C24.4926 9.40837 22.9408 8.42432 21.0266 8.42432Z" fill="#304551"/>
<path d="M30.964 25.5935C29.8788 25.0503 28.3619 25.882 27.5762 27.4516C26.7906 29.021 27.0336 30.7339 28.1189 31.2771C29.2044 31.8205 30.7213 30.9888 31.507 29.4194C32.2926 27.8497 32.0496 26.1369 30.964 25.5935Z" fill="#4288B9"/>
<path d="M37.173 30.2722C36.0877 29.729 34.5708 30.5607 33.7852 32.1303C32.9996 33.6997 33.2426 35.4126 34.3279 35.9558C35.4134 36.4992 36.9303 35.6675 37.716 34.0981C38.5016 32.5284 38.2585 30.8156 37.173 30.2722Z" fill="#4288B9"/>
<path d="M12.6855 25.1296C13.7708 24.5864 15.2877 25.4181 16.0734 26.9878C16.859 28.5572 16.616 30.27 15.5307 30.8132C14.4452 31.3566 12.9283 30.5249 12.1426 28.9555C11.357 27.3859 11.6 25.673 12.6855 25.1296Z" fill="#DE594E"/>
<path d="M5.2539 30.2727C6.33917 29.7295 7.85607 30.5612 8.64171 32.1308C9.42737 33.7002 9.18433 35.4131 8.09906 35.9563C7.01354 36.4997 5.49664 35.668 4.71095 34.0986C3.92531 32.5289 4.16838 30.8161 5.2539 30.2727Z" fill="#DE594E"/>
<path d="M5.54882 22.1213C6.6341 21.5781 8.151 22.4098 8.93663 23.9795C9.72229 25.5489 9.47925 27.2617 8.39398 27.8049C7.30846 28.3483 5.79156 27.5166 5.00587 25.9472C4.22024 24.3776 4.4633 22.6647 5.54882 22.1213Z" fill="#DE594E"/>
<path d="M11.998 33.5515C13.0833 33.0083 14.6002 33.84 15.3859 35.4096C16.1715 36.979 15.9285 38.6919 14.8432 39.2351C13.7577 39.7785 12.2408 38.9468 11.4551 37.3774C10.6695 35.8077 10.9125 34.0949 11.998 33.5515Z" fill="#DE594E"/>
</svg>
