<svg width="48" height="48" viewBox="0 0 48 48" fill="none" xmlns="http://www.w3.org/2000/svg">
<path d="M48 24C48 10.7451 37.2549 0 24 0C10.7451 0 0 10.7451 0 24C0 37.2549 10.7451 48 24 48H48V44H37.25C43.96 39.5576 47.9971 32.0479 48 24ZM35.7559 40.1807C33.0752 42.1279 29.3223 41.5342 27.375 38.8525C25.4277 36.1719 26.0215 32.4199 28.7021 30.4717C31.3838 28.5244 35.1357 29.1182 37.083 31.7998C39.0312 34.4805 38.4365 38.2324 35.7559 40.1807ZM35.4609 13.9678C38.6123 12.9434 41.9971 14.668 43.0215 17.8193C44.0449 20.9717 42.3203 24.3564 39.1689 25.3799C36.0176 26.4043 32.6328 24.6797 31.6084 21.5283C30.585 18.377 32.3096 14.9912 35.4609 13.9678ZM24 4C27.3135 4 30 6.68652 30 10C30 13.3135 27.3135 16 24 16C20.6865 16 18 13.3135 18 10C18 6.68652 20.6865 4 24 4ZM4.97852 17.8193C6.00293 14.668 9.3877 12.9434 12.5391 13.9668C15.6904 14.9912 17.415 18.376 16.3916 21.5273C15.3672 24.6787 11.9824 26.4033 8.83105 25.3799C5.67969 24.3564 3.95508 20.9717 4.97852 17.8193ZM20.625 38.8525C18.6777 41.5342 14.9248 42.1279 12.2441 40.1807C9.56348 38.2324 8.96875 34.4805 10.917 31.7998C12.8643 29.1191 16.6172 28.5244 19.2979 30.4727C21.9785 32.4199 22.5723 36.1719 20.625 38.8525ZM22 24C22 22.8955 22.8955 22 24 22C25.1045 22 26 22.8955 26 24C26 25.1045 25.1045 26 24 26C22.8955 26 22 25.1045 22 24Z" fill="white"/>
</svg>
