<svg width="47" height="48" viewBox="0 0 47 48" fill="none" xmlns="http://www.w3.org/2000/svg">
<g clip-path="url(#clip0)">
<path d="M8.61743 18.4006C9.48266 18.4006 10.1841 17.6843 10.1841 16.8007C10.1841 15.917 9.48266 15.2007 8.61743 15.2007C7.75219 15.2007 7.05078 15.917 7.05078 16.8007C7.05078 17.6843 7.75219 18.4006 8.61743 18.4006Z" fill="#FFF870"/>
<path d="M10.8899 23.2007H6.34522C5.87055 23.2007 5.48438 23.5655 5.48438 24.0135V27.3894C6.45721 27.779 7.51155 28.0005 8.61757 28.0005C9.7236 28.0005 10.7779 27.7789 11.7508 27.3894V24.0135C11.7508 23.5655 11.3646 23.2007 10.8899 23.2007Z" fill="#68BD49"/>
<path d="M27.4182 8.00074C28.2834 8.00074 28.9849 7.2844 28.9849 6.40076C28.9849 5.51712 28.2834 4.80078 27.4182 4.80078C26.553 4.80078 25.8516 5.51712 25.8516 6.40076C25.8516 7.2844 26.553 8.00074 27.4182 8.00074Z" fill="#FFF870"/>
<path d="M29.6907 12.8008H25.146C24.6713 12.8008 24.2852 13.1656 24.2852 13.6136V16.9895C25.258 17.3791 26.3123 17.6006 27.4184 17.6006C28.5244 17.6006 29.5787 17.379 30.5516 16.9895V13.6136C30.5516 13.1656 30.1654 12.8008 29.6907 12.8008Z" fill="#642F92"/>
<path d="M37.5998 28.8005C38.4651 28.8005 39.1665 28.0842 39.1665 27.2006C39.1665 26.3169 38.4651 25.6006 37.5998 25.6006C36.7346 25.6006 36.0332 26.3169 36.0332 27.2006C36.0332 28.0842 36.7346 28.8005 37.5998 28.8005Z" fill="#FFF870"/>
<path d="M39.8724 33.6001H35.3276C34.853 33.6001 34.4668 33.9649 34.4668 34.4129V37.7888C35.4396 38.1784 36.494 38.4 37.6 38.4C38.706 38.4 39.7604 38.1783 40.7332 37.7888V34.4129C40.7332 33.9657 40.347 33.6001 39.8724 33.6001Z" fill="#1C75BC"/>
<path d="M37.6003 20.802C37.4954 20.802 37.3935 20.814 37.2901 20.8181L33.9681 14.4999C35.1603 13.0744 35.9084 11.2576 36.0102 9.26564L40.9379 11.6952C40.8118 12.0416 40.7335 12.412 40.7335 12.8023C40.7335 14.5671 42.1388 16.0022 43.8667 16.0022C45.5947 16.0022 46.9999 14.567 46.9999 12.8023C46.9999 11.0376 45.5946 9.60248 43.8667 9.60248C43.0967 9.60248 42.4004 9.89843 41.8544 10.3705L35.9185 7.4433C35.1947 2.70983 30.7761 -0.79002 25.7762 0.157948C22.3562 0.805926 19.6052 3.60661 18.959 7.0969C18.8759 7.54492 18.8289 7.98806 18.8109 8.42483L14.1683 12.4815C12.8554 11.3488 11.2089 10.6096 9.40106 10.4424V6.28815C10.7483 5.9306 11.751 4.68901 11.751 3.20181C11.751 1.43703 10.3457 0.00195312 8.61779 0.00195312C6.88977 0.00195312 5.48459 1.43712 5.48459 3.20181C5.48459 4.68892 6.48725 5.9305 7.83451 6.28815V10.4424C3.44952 10.8488 0.0014687 14.6192 0.0014687 19.2014C0.0014687 22.2829 1.56343 24.9948 3.91804 26.5676V24.0141C3.91804 22.6837 5.00763 21.6013 6.34552 21.6013H10.8902C12.2289 21.6013 13.3177 22.6837 13.3177 24.0141V26.5676C15.2744 25.2612 16.6679 23.1621 17.0885 20.7238L20.6236 23.538C20.4598 23.9261 20.3667 24.3524 20.3667 24.8012C20.3667 26.566 21.7719 28.001 23.4999 28.001C25.2278 28.001 26.6331 26.5659 26.6331 24.8012C26.6331 23.0364 25.2278 21.6013 23.4999 21.6013C22.7792 21.6013 22.1228 21.8613 21.5925 22.2805L17.213 18.7943C17.1252 16.8367 16.418 15.0416 15.2735 13.6208L18.9472 10.4097C19.385 12.8128 20.7817 14.8752 22.7164 16.1671V13.6136C22.7164 12.2833 23.806 11.2009 25.1439 11.2009H29.6886C31.0272 11.2009 32.1161 12.2833 32.1161 13.6136V14.452C32.1161 14.7871 32.3056 15.0456 32.5555 15.1792L35.637 21.0406C31.8301 21.9517 28.9836 25.4397 28.9836 29.6011C28.9836 30.5955 29.1614 31.5442 29.4607 32.4355L26.2891 34.865C24.8055 32.2035 22.0076 30.4012 18.7999 30.4012C14.3131 30.4012 10.6206 33.9227 10.2235 38.4009H6.15523C5.80513 37.0249 4.58859 36.0009 3.1332 36.0009C1.40527 36.0007 0 37.4359 0 39.2007C0 40.9655 1.40527 42.4006 3.1332 42.4006C4.58859 42.4006 5.80504 41.3766 6.15523 40.0006H10.2339C10.4791 42.7461 11.9525 45.1324 14.1004 46.5669V44.0134C14.1004 42.683 15.1899 41.6006 16.5278 41.6006H21.0726C22.4112 41.6006 23.5 42.683 23.5 44.0134V46.5669C25.3385 45.3397 26.6811 43.4126 27.187 41.1623L32.3208 43.6942C32.1947 44.0406 32.1164 44.411 32.1164 44.8013C32.1164 46.5661 33.5216 48.0012 35.2496 48.0012C36.9776 48.0012 38.3828 46.566 38.3828 44.8013C38.3828 43.0366 36.9775 41.6015 35.2496 41.6015C34.4796 41.6015 33.7832 41.8974 33.2373 42.3694L27.3985 39.4904C27.4016 39.3928 27.4165 39.2992 27.4165 39.2015C27.4165 38.2064 27.2465 37.2536 26.9474 36.3608L30.1127 33.9361C30.7949 35.1568 31.7506 36.1992 32.9005 36.9672V34.4137C32.9005 33.0833 33.9901 32.0009 35.3279 32.0009H39.8727C41.2113 32.0009 42.3001 33.0833 42.3001 34.4137V36.9672C44.6548 35.3944 46.2167 32.6825 46.2167 29.601C46.2167 24.7499 42.3511 20.802 37.6003 20.802ZM8.61797 20.0021C6.88995 20.0021 5.48477 18.5669 5.48477 16.8022C5.48477 15.0375 6.89004 13.6024 8.61797 13.6024C10.3459 13.6024 11.7512 15.0375 11.7512 16.8022C11.7512 18.5669 10.3452 20.0021 8.61797 20.0021ZM27.4173 9.60248C25.6893 9.60248 24.2841 8.1673 24.2841 6.40261C24.2841 4.63792 25.6894 3.20275 27.4173 3.20275C29.1453 3.20275 30.5505 4.63792 30.5505 6.40261C30.5505 8.1673 29.1445 9.60248 27.4173 9.60248ZM18.8009 40.0014C17.0729 40.0014 15.6677 38.5662 15.6677 36.8015C15.6677 35.0367 17.073 33.6017 18.8009 33.6017C20.5289 33.6017 21.9341 35.0368 21.9341 36.8015C21.9341 38.5663 20.5281 40.0014 18.8009 40.0014ZM37.6003 30.4017C35.8723 30.4017 34.4671 28.9665 34.4671 27.2019C34.4671 25.4371 35.8724 24.002 37.6003 24.002C39.3282 24.002 40.7335 25.4372 40.7335 27.2019C40.7335 28.9674 39.3275 30.4017 37.6003 30.4017Z" fill="white"/>
<path d="M18.801 38.3997C19.6663 38.3997 20.3677 37.6833 20.3677 36.7997C20.3677 35.916 19.6663 35.1997 18.801 35.1997C17.9358 35.1997 17.2344 35.916 17.2344 36.7997C17.2344 37.6833 17.9358 38.3997 18.801 38.3997Z" fill="#FFF870"/>
<path d="M21.0735 43.1997H16.5288C16.0541 43.1997 15.668 43.5645 15.668 44.0125V47.3884C16.6408 47.778 17.6951 47.9996 18.8012 47.9996C19.9072 47.9996 20.9615 47.7779 21.9344 47.3884V44.0125C21.9344 43.5653 21.5482 43.1997 21.0735 43.1997Z" fill="#F57E20"/>
</g>
<defs>
<clipPath id="clip0">
<rect width="47" height="48" fill="white"/>
</clipPath>
</defs>
</svg>
