<svg width="40" height="40" viewBox="0 0 40 40" fill="none" xmlns="http://www.w3.org/2000/svg">
<g clip-path="url(#clip0)">
<path d="M6.94262 14.2188C4.39011 14.2188 2.31445 12.1165 2.31445 9.53125C2.31445 6.94602 4.39011 4.84375 6.94262 4.84375C9.49513 4.84375 11.5708 6.94602 11.5708 9.53125C11.5708 12.1165 9.49513 14.2188 6.94262 14.2188Z" fill="#FFF870"/>
<path d="M32.552 14.2188C29.9995 14.2188 27.9238 12.1165 27.9238 9.53125C27.9238 6.94602 29.9995 4.84375 32.552 4.84375C35.1045 4.84375 37.1802 6.94602 37.1802 9.53125C37.1802 12.1165 35.1045 14.2188 32.552 14.2188Z" fill="#FFF870"/>
<path d="M19.7481 11.7188C16.5583 11.7188 13.9629 9.09008 13.9629 5.85938C13.9629 2.62867 16.5583 0 19.7481 0C22.9379 0 25.5333 2.62867 25.5333 5.85938C25.5333 9.09008 22.9379 11.7188 19.7481 11.7188Z" fill="#FFF870"/>
<path d="M20.9048 11.8374V19.9221C20.9048 20.5698 20.3873 21.094 19.7477 21.094C19.1082 21.094 18.5907 20.5698 18.5907 19.9221V11.8374C14.676 12.4122 11.6484 15.8006 11.6484 19.9221V26.9533C11.6484 27.6011 12.1659 28.1252 12.8055 28.1252H15.3976L16.2812 38.9268C16.3308 39.5333 16.8325 40.0002 17.4336 40.0002H22.0618C22.6629 40.0002 23.1646 39.5333 23.2143 38.9268L24.0979 28.1252H26.69C27.3295 28.1252 27.847 27.6011 27.847 26.9533V19.9221C27.847 15.8006 24.8194 12.4122 20.9048 11.8374Z" fill="#1C75BC"/>
<path d="M9.25633 27.1094V20.0781C9.25633 18.3216 9.723 16.6892 10.4759 15.2311C9.43698 14.603 8.23767 14.2188 6.94225 14.2188C3.11406 14.2188 0 17.3727 0 21.25V27.1094C0 27.7571 0.517506 28.2812 1.15704 28.2812H2.42369L3.47675 38.9448C3.53553 39.5434 4.03383 40 4.62816 40H9.25633C9.85066 40 10.349 39.5434 10.4077 38.9448L11.2629 30.2852C10.0816 29.7238 9.25633 28.5162 9.25633 27.1094Z" fill="#00467E"/>
<path d="M39.4934 21.25C39.4934 17.3727 36.3793 14.2188 32.5512 14.2188C31.2557 14.2188 30.0564 14.603 29.0175 15.2311C29.7704 16.6892 30.2371 18.3216 30.2371 20.0781V27.1094C30.2371 28.5162 29.4118 29.7238 28.2305 30.2852L29.0857 38.9448C29.1445 39.5434 29.6428 40 30.2371 40H34.8652C35.4596 40 35.9579 39.5434 36.0167 38.9448L37.0697 28.2812H38.3364C38.9759 28.2812 39.4934 27.7571 39.4934 27.1094V21.25Z" fill="#00467E"/>
</g>
<defs>
<clipPath id="clip0">
<rect width="39.4937" height="40" fill="white"/>
</clipPath>
</defs>
</svg>
