<svg width="46" height="45" viewBox="0 0 46 45" fill="none" xmlns="http://www.w3.org/2000/svg">
<g clip-path="url(#clip0)">
<path d="M26.3167 12.1867C26.7752 11.6723 27.1518 11.206 27.5776 10.8041C29.0187 9.40539 30.9838 9.32501 32.343 10.579C33.6695 11.8009 33.7186 13.7301 32.474 15.2092C32.3921 15.3057 32.3103 15.4183 32.2939 15.4183C33.0963 16.19 33.866 16.9295 34.6848 17.7173C37.2067 16.5919 38.8443 16.817 39.8759 18.5372C40.8421 20.1449 40.3345 21.817 38.3857 23.2961C39.6139 24.2768 40.2526 25.4986 39.7941 27.0903C39.3355 28.6819 37.8945 29.1964 36.6008 29.9681C36.699 30.0806 36.7809 30.1771 36.8791 30.2575C38.8115 31.8813 38.6314 34.5018 36.437 35.7719C33.4729 37.4922 30.4925 39.1642 27.5121 40.8363C26.0219 41.6723 24.5481 42.5404 23.0415 43.3443C17.8012 46.1578 11.5292 45.3057 7.22233 41.2543C6.94394 40.997 6.64918 40.7719 6.32166 40.5629C-0.850999 36.1417 -2.19383 26.4311 3.55413 20.3379C5.56837 18.1996 7.72999 16.1739 9.84248 14.1321C10.9233 13.0871 12.4954 13.1674 13.4616 14.3089C13.9528 14.8877 14.264 15.6112 14.6898 16.3346C14.8371 16.206 15.0337 16.0453 15.2138 15.8684C16.9169 14.1964 18.6036 12.5244 20.3067 10.8684C22.2718 8.95523 24.761 9.35716 26.0055 11.7687C26.0874 11.8652 26.1365 11.9295 26.3167 12.1867ZM1.63814 28.1031C1.63814 34.0035 4.25829 38.1192 8.51603 39.9199C13.1013 41.8652 17.49 41.3186 21.1746 38.0388C25.0885 34.5501 28.7239 30.7559 32.4413 27.0581C32.8015 26.7044 32.9817 26.0613 33.0308 25.5469C33.0799 24.8877 32.6378 24.3732 31.9827 24.1642C31.2458 23.907 30.6072 24.0999 30.0504 24.6465C28.0525 26.624 26.0383 28.5855 24.0404 30.5629C23.8439 30.7559 23.6801 31.0292 23.4509 31.0935C23.1397 31.19 22.583 31.2382 22.4683 31.0613C22.2882 30.8202 22.3373 30.37 22.3864 30.0163C22.4192 29.8395 22.6648 29.7109 22.8286 29.5501C25.9728 26.4633 29.117 23.3764 32.2611 20.2736C33.1618 19.3893 33.2437 18.28 32.4904 17.5726C31.7535 16.8813 30.7218 16.9938 29.8211 17.8781C26.7261 20.9006 23.6474 23.9391 20.5523 26.9617C20.3558 27.1546 20.1757 27.3475 19.9628 27.5244C19.5862 27.862 19.1768 27.9263 18.8001 27.5404C18.4398 27.1546 18.5054 26.7687 18.8656 26.399C18.9803 26.2864 19.0949 26.1739 19.2095 26.0613C22.2227 23.1031 25.2359 20.1449 28.249 17.2028C29.248 16.2221 30.2796 15.2575 31.2458 14.2285C32.2775 13.1353 31.7862 11.5437 30.3943 11.2864C29.641 11.1578 29.1006 11.5437 28.5929 12.042C24.6627 15.9166 20.7325 19.7752 16.7859 23.6337C16.6057 23.8105 16.442 24.0517 16.2455 24.0999C15.9343 24.1642 15.4431 24.2125 15.312 24.0356C15.1155 23.8105 15.1319 23.3764 15.181 23.0388C15.2138 22.8459 15.4922 22.6851 15.6559 22.5083C17.8339 20.37 20.0119 18.2318 22.1899 16.0774C22.8613 15.4183 23.631 14.8073 24.1714 14.0517C24.4826 13.6176 24.6627 12.8459 24.4826 12.3636C24.3024 11.8974 23.631 11.3507 23.1234 11.3186C22.583 11.2703 21.8624 11.6401 21.4366 12.042C17.097 16.2382 12.8065 20.4665 8.49966 24.6948C8.31952 24.8716 8.17214 25.1289 7.95925 25.1771C7.61536 25.2414 7.14045 25.2896 6.89482 25.1128C6.73106 24.9842 6.81294 24.4697 6.86206 24.1321C6.87844 23.9874 7.1077 23.8588 7.23871 23.7301C8.8763 22.1224 10.5139 20.5147 12.1515 18.8909C13.0522 17.9906 13.2323 16.833 12.6428 15.8041C12.1024 14.8556 11.4801 14.7591 10.7104 15.5147C8.8108 17.3636 6.91119 19.2125 5.04434 21.0935C2.76808 23.4086 1.63814 26.1739 1.63814 28.1031ZM12.4299 42.669C12.7083 42.7816 12.872 42.8459 13.0522 42.8941C16.3601 43.8427 19.5207 43.5533 22.5175 41.8652C26.8407 39.4375 31.1639 36.9777 35.4708 34.5179C36.5516 33.907 36.9119 32.8298 36.3715 31.9617C35.8638 31.1417 34.8322 30.9809 33.7841 31.5758C31.8517 32.6691 29.9358 33.8266 27.9706 34.8555C26.1038 35.8363 24.4662 37.0581 23.0087 38.5694C21.06 40.5951 18.62 41.817 15.8361 42.3154C14.7716 42.4922 13.6745 42.5404 12.4299 42.669ZM34.2099 23.7784C35.3398 23.1353 36.4861 22.5083 37.6324 21.833C38.6641 21.2221 39.008 20.2092 38.484 19.325C37.9927 18.489 37.0102 18.4086 35.913 18.8588C34.128 19.5822 33.7677 21.5437 32.2448 22.4279C32.9489 22.8941 33.5385 23.2961 34.2099 23.7784ZM30.0504 31.624C30.0995 31.6723 30.1486 31.7366 30.1978 31.7848C32.6214 30.4022 35.045 29.0356 37.4523 27.653C37.6324 27.5404 37.7962 27.3957 37.9436 27.235C38.4349 26.6401 38.5004 25.8041 38.0582 25.2253C37.6161 24.6305 37.0265 24.3732 36.2732 24.534C35.3071 24.743 34.6848 25.3057 34.6193 25.997C34.5538 26.9295 34.128 27.6691 33.4566 28.3121C32.343 29.4054 31.1967 30.5147 30.0504 31.624Z" fill="#ffffff"/>
<path d="M39.9257 9.01938C39.6801 8.82645 39.3198 8.68176 39.2707 8.45667C39.2052 8.16729 39.2707 7.7332 39.4672 7.5242C40.3023 6.62388 41.2194 5.77179 42.1037 4.90362C42.857 4.16407 43.6103 3.4406 44.3472 2.68497C44.7402 2.29912 45.166 2.10619 45.6245 2.5242C46.0831 2.95828 45.9029 3.39237 45.5099 3.77822C43.8887 5.35378 42.2838 6.94542 40.6626 8.52098C40.4661 8.72999 40.2205 8.84253 39.9257 9.01938Z" fill="#ffffff"/>
<path d="M16.0323 0C16.1633 0.11254 16.4744 0.289389 16.5891 0.530547C17.3915 2.28296 18.1448 4.06752 18.9145 5.83601C19.1273 6.31833 18.98 6.76849 18.4887 6.86495C18.1939 6.92926 17.6208 6.72026 17.5061 6.46302C16.671 4.69453 15.8849 2.89389 15.1316 1.09325C14.9023 0.546624 15.2954 0 16.0323 0Z" fill="#ffffff"/>
<path d="M39.5969 3.07078C39.4659 3.39232 39.4167 3.56917 39.3185 3.72994C38.6307 5.0965 37.9429 6.44699 37.2551 7.81355C37.0095 8.31194 36.682 8.72995 36.0597 8.44056C35.4538 8.15117 35.5356 7.65277 35.7977 7.13831C36.5346 5.70744 37.2224 4.26049 38.0084 2.86178C38.1558 2.60454 38.6634 2.41162 38.991 2.42769C39.2202 2.44377 39.4331 2.86178 39.5969 3.07078Z" fill="#ffffff"/>
<path d="M15.9019 7.8134C15.7217 8.0224 15.558 8.40825 15.3614 8.42433C15.0339 8.45648 14.5754 8.36002 14.3789 8.15102C13.7075 7.44362 13.1343 6.67192 12.5284 5.91629C12.1354 5.43398 11.7424 4.96774 11.3657 4.48542C11.0382 4.06742 10.9563 3.56902 11.4476 3.31179C11.726 3.16709 12.3647 3.27963 12.5612 3.50471C13.6256 4.67835 14.5918 5.93237 15.5907 7.17031C15.7053 7.315 15.7708 7.54008 15.9019 7.8134Z" fill="#ffffff"/>
<path d="M46.0001 9.37281C45.738 9.63004 45.5743 9.91943 45.3123 10.0641C44.1168 10.8037 42.8886 11.5111 41.6768 12.2185C41.1855 12.5079 40.727 12.5239 40.4159 11.9773C40.1375 11.4628 40.4159 11.1252 40.8744 10.868C42.0862 10.1606 43.2817 9.40496 44.5262 8.72972C44.7882 8.58502 45.1976 8.58502 45.5088 8.68149C45.6889 8.7458 45.8035 9.08342 46.0001 9.37281Z" fill="#ffffff"/>
<path d="M22.1736 3.95431C22.1736 4.64563 22.1736 5.35303 22.1736 6.04434C22.1736 6.57489 21.9444 6.96074 21.3876 6.97682C20.8144 6.9929 20.6016 6.57489 20.6016 6.06042C20.6016 4.61348 20.6016 3.16653 20.6016 1.71959C20.6016 1.20512 20.7817 0.787109 21.3712 0.787109C21.9444 0.787109 22.1736 1.17296 22.1736 1.70351C22.1736 2.45914 22.1736 3.19869 22.1736 3.95431Z" fill="#ffffff"/>
</g>
<defs>
<clipPath id="clip0">
<rect width="46" height="45" fill="white"/>
</clipPath>
</defs>
</svg>
