<svg width="30" height="30" viewBox="0 0 30 30" fill="none" xmlns="http://www.w3.org/2000/svg">
<path d="M27.4896 6.39756C27.4642 6.24835 27.3831 6.13261 27.2627 6.06572L21.4342 0.237221C21.3673 0.116838 21.2515 0.0357083 21.1024 0.0103331C21.0598 0.000802522 21.016 -0.00223536 20.9714 0.00163645H6.99963C6.14968 0.00163645 5.49976 0.651564 5.49976 1.50151V3.00139H3.99988C3.14993 3.00139 2.5 3.65132 2.5 4.50127V28.4997C2.5 29.3497 3.14993 29.9996 3.99988 29.9996H22.9986C23.8485 29.9996 24.4985 29.3497 24.4985 28.4997V26.9999H25.9984C26.8483 26.9999 27.4982 26.3499 27.4982 25.5V6.52861C27.5022 6.48393 27.4991 6.44009 27.4896 6.39756ZM25.7984 6.00127H21.9987C21.6987 6.00127 21.4987 5.8013 21.4987 5.50133V1.7016L25.7984 6.00127ZM23.4985 28.4997C23.4985 28.7997 23.2986 28.9997 22.9986 28.9997H3.99982C3.69984 28.9997 3.49988 28.7997 3.49988 28.4997V4.50139C3.49988 4.25139 3.69984 4.00145 3.99982 4.00145H5.44972H5.4997V25.5C5.4997 26.3499 6.14962 26.9999 6.99958 26.9999H23.4985V28.4997H23.4985ZM26.4983 25.5C26.4983 25.8 26.2983 25.9999 25.9984 25.9999H23.9485H6.99963C6.69966 25.9999 6.4997 25.8 6.4997 25.5V3.60146V1.50157C6.4997 1.25157 6.69966 1.00163 6.99963 1.00163H20.4987V5.50133C20.4987 6.35128 21.1486 7.00121 21.9986 7.00121H26.4983V25.5Z" fill="white"/>
<path d="M9.49994 7.00085H18.4993C18.7993 7.00085 18.9993 6.80089 18.9993 6.50092C18.9993 6.20094 18.7993 6.00098 18.4993 6.00098H9.49994C9.19996 6.00098 9 6.20094 9 6.50092C9 6.80089 9.19996 7.00085 9.49994 7.00085Z" fill="white"/>
<path d="M9 9.50092C9 9.80089 9.19996 10.0009 9.49994 10.0009H24.4989C24.7989 10.0009 24.9988 9.80089 24.9988 9.50092C24.9988 9.20094 24.7989 9.00098 24.4989 9.00098H9.49994C9.19996 9.00098 9 9.20094 9 9.50092Z" fill="white"/>
<path d="M24.499 12.001H9.49994C9.19996 12.001 9 12.2009 9 12.5009C9 12.8009 9.19996 13.0009 9.49994 13.0009H24.4989C24.7989 13.0009 24.9988 12.8009 24.9988 12.5009C24.9988 12.2009 24.7989 12.001 24.499 12.001Z" fill="white"/>
<path d="M24.499 15.001H9.49994C9.19996 15.001 9 15.2009 9 15.5009C9 15.8009 9.19996 16.0009 9.49994 16.0009H24.4989C24.7989 16.0009 24.9988 15.8009 24.9988 15.5009C24.9988 15.2009 24.7989 15.001 24.499 15.001Z" fill="white"/>
<path d="M24.499 18H9.49994C9.19996 18 9 18.2 9 18.4999C9 18.7999 9.19996 18.9999 9.49994 18.9999H24.4989C24.7989 18.9999 24.9988 18.7999 24.9988 18.4999C24.9988 18.2 24.7989 18 24.499 18Z" fill="white"/>
<path d="M24.499 21H9.49994C9.19996 21 9 21.2 9 21.4999C9 21.7999 9.19996 21.9999 9.49994 21.9999H24.4989C24.7989 21.9999 24.9988 21.7999 24.9988 21.4999C24.9988 21.2 24.7989 21 24.499 21Z" fill="white"/>
</svg>
