<svg width="27" height="27" viewBox="0 0 27 27" fill="none" xmlns="http://www.w3.org/2000/svg">
<path d="M13.5013 27C6.04815 26.9918 0.00818502 20.9525 0 13.5V13.23C0.148422 5.81114 6.25732 -0.0972346 13.6778 0.00121259C21.0982 0.0996598 27.0482 6.16802 26.9997 13.5882C26.9512 21.0084 20.9225 26.9985 13.5013 27ZM13.4797 24.3H13.5013C19.4645 24.294 24.2946 19.4572 24.2916 13.4946C24.2886 7.53206 19.4537 2.70003 13.4905 2.70003C7.52738 2.70003 2.69245 7.53206 2.68947 13.4946C2.68649 19.4572 7.51659 24.294 13.4797 24.3ZM17.5518 18.9H14.8515V8.10002H17.5518V18.9ZM12.1512 18.9H9.45094V8.10002H12.1512V18.9Z" fill="white"/>
</svg>
