<?xml version="1.0" encoding="utf-8"?>
<!-- Generator: Adobe Illustrator 24.3.0, SVG Export Plug-In . SVG Version: 6.00 Build 0)  -->
<svg version="1.1" id="Слой_1" xmlns="http://www.w3.org/2000/svg" xmlns:xlink="http://www.w3.org/1999/xlink" x="0px" y="0px"
	 viewBox="0 0 28 28" style="enable-background:new 0 0 28 28;" xml:space="preserve">
<style type="text/css">
	.st0{fill:#FFFFFF;}
</style>
<g>
	<path class="st0" d="M14,28C6.3,28,0,21.7,0,14S6.3,0,14,0s14,6.3,14,14S21.7,28,14,28z M14,2C7.4,2,2,7.4,2,14c0,6.6,5.4,12,12,12
		c6.6,0,12-5.4,12-12C26,7.4,20.6,2,14,2z"/>
</g>
<g>
	<path class="st0" d="M12.9,18.9c-0.5,0-1-0.1-1.5-0.4c-0.9-0.5-1.5-1.5-1.5-2.6v-3.8c0-1.1,0.6-2.1,1.5-2.6c0.9-0.5,2.1-0.5,3,0
		l3.2,1.9c0.9,0.5,1.5,1.5,1.5,2.6c0,1.1-0.6,2.1-1.5,2.6l-3.2,1.9C13.9,18.7,13.4,18.9,12.9,18.9z M12.9,11.1
		c-0.2,0-0.4,0.1-0.5,0.1c-0.2,0.1-0.5,0.3-0.5,0.9v3.8c0,0.5,0.3,0.8,0.5,0.9s0.6,0.3,1,0l3.2-1.9c0.5-0.3,0.5-0.7,0.5-0.9
		c0-0.2,0-0.6-0.5-0.9l-3.2-1.9C13.2,11.2,13.1,11.1,12.9,11.1z"/>
</g>
</svg>
