<?xml version="1.0" encoding="utf-8"?>
<!-- Generator: Adobe Illustrator 24.3.0, SVG Export Plug-In . SVG Version: 6.00 Build 0)  -->
<svg version="1.1" id="Слой_1" xmlns="http://www.w3.org/2000/svg" xmlns:xlink="http://www.w3.org/1999/xlink" x="0px" y="0px"
	 viewBox="0 0 52 52" style="enable-background:new 0 0 52 52;" xml:space="preserve">
<style type="text/css">
	.st0{fill:none;}
	.st1{fill:#FFFFFF;}
</style>
<g>
	<path class="st0" d="M35.7,25.1l-13.8-7.9c-0.2-0.1-0.3-0.1-0.5-0.1c-0.2,0-0.4,0.1-0.5,0.1c-0.2,0.1-0.5,0.3-0.5,0.9v15.9
		c0,0.5,0.3,0.8,0.5,0.9c0.2,0.1,0.5,0.3,1,0l13.8-7.9c0.5-0.3,0.5-0.7,0.5-0.9C36.2,25.8,36.1,25.4,35.7,25.1z"/>
	<path class="st0" d="M26,2C12.8,2,2,12.8,2,26s10.8,24,24,24s24-10.8,24-24S39.2,2,26,2z M36.7,28.6l-13.8,7.9
		c-0.5,0.3-1,0.4-1.5,0.4c-0.5,0-1-0.1-1.5-0.4C19,36,18.4,35,18.4,33.9V18.1c0-1.1,0.6-2.1,1.5-2.6c0.9-0.5,2.1-0.5,3,0l13.8,7.9
		c0.9,0.5,1.5,1.5,1.5,2.6C38.2,27.1,37.6,28.1,36.7,28.6z"/>
	<path class="st1" d="M26,0C11.7,0,0,11.7,0,26c0,14.3,11.7,26,26,26c14.3,0,26-11.7,26-26C52,11.7,40.3,0,26,0z M26,50
		C12.8,50,2,39.2,2,26S12.8,2,26,2s24,10.8,24,24S39.2,50,26,50z"/>
	<path class="st1" d="M36.7,23.4l-13.8-7.9c-0.9-0.5-2.1-0.5-3,0C19,16,18.4,17,18.4,18.1v15.9c0,1.1,0.6,2.1,1.5,2.6
		c0.5,0.3,1,0.4,1.5,0.4c0.5,0,1-0.1,1.5-0.4l13.8-7.9c0.9-0.5,1.5-1.5,1.5-2.6C38.2,24.9,37.6,23.9,36.7,23.4z M35.7,26.9
		l-13.8,7.9c-0.5,0.3-0.8,0.1-1,0c-0.2-0.1-0.5-0.3-0.5-0.9V18.1c0-0.5,0.3-0.8,0.5-0.9c0.1-0.1,0.3-0.1,0.5-0.1
		c0.1,0,0.3,0,0.5,0.1l13.8,7.9c0.5,0.3,0.5,0.7,0.5,0.9C36.2,26.2,36.1,26.6,35.7,26.9z"/>
</g>
</svg>
