<svg width="32" height="32" viewBox="0 0 32 32" fill="none" xmlns="http://www.w3.org/2000/svg">
<g clip-path="url(#clip0)">
<path d="M22.4014 1.33259C21.927 1.12522 21.3743 1.3419 21.167 1.81628C20.9597 2.29065 21.1762 2.8434 21.6507 3.05071C26.7987 5.30034 30.1253 10.3833 30.1256 16.0004C30.1256 21.6178 26.7988 26.701 21.6502 28.9505C21.1758 29.1578 20.9592 29.7105 21.1666 30.185C21.3204 30.5373 21.6648 30.7473 22.0261 30.7473C22.1514 30.7473 22.2788 30.7221 22.401 30.6687C28.2324 28.1207 32.0006 22.3631 32.0006 16.0003C32.0003 9.63803 28.2324 3.88059 22.4014 1.33259Z" fill="white"/>
<path d="M22.6507 8.56614C22.265 8.22083 21.6723 8.25358 21.3269 8.63933C20.9816 9.02514 21.0143 9.61777 21.4001 9.96314C23.1158 11.4991 24.0998 13.6995 24.0998 16.0003C24.0998 18.3009 23.1158 20.5014 21.4001 22.0374C21.0143 22.3827 20.9815 22.9754 21.3269 23.3612C21.5121 23.568 21.7683 23.6734 22.0257 23.6734C22.2483 23.6734 22.4718 23.5946 22.6507 23.4344C24.7633 21.5433 25.9748 18.8336 25.9748 16.0002C25.9748 13.1669 24.7632 10.4572 22.6507 8.56614Z" fill="white"/>
<path d="M16.4237 3.61588C16.1086 3.45619 15.7305 3.48726 15.4456 3.69613L8.16187 9.03744H0.9375C0.41975 9.03744 0 9.45719 0 9.97494V22.025C0 22.5428 0.41975 22.9625 0.9375 22.9625H8.16181L15.4456 28.3039C15.6095 28.4242 15.8042 28.4854 16.0001 28.4854C16.1446 28.4854 16.2899 28.452 16.4237 28.3842C16.7389 28.2245 16.9375 27.9012 16.9375 27.5479V4.45201C16.9375 4.09876 16.7389 3.77544 16.4237 3.61588ZM15.0624 25.6978L9.02312 21.2689C8.86231 21.151 8.66812 21.0874 8.46869 21.0874H1.875V10.9124H8.46869C8.66806 10.9124 8.86231 10.8488 9.02306 10.731L15.0624 6.30219V25.6978Z" fill="white"/>
</g>
<defs>
<clipPath id="clip0">
<rect width="32" height="32" fill="white"/>
</clipPath>
</defs>
</svg>
