<?xml version="1.0" encoding="utf-8"?>
<!-- Generator: Adobe Illustrator 24.3.0, SVG Export Plug-In . SVG Version: 6.00 Build 0)  -->
<svg version="1.1" id="Слой_1" xmlns="http://www.w3.org/2000/svg" xmlns:xlink="http://www.w3.org/1999/xlink" x="0px" y="0px"
	 viewBox="0 0 23 23" style="enable-background:new 0 0 23 23;" xml:space="preserve">
<style type="text/css">
	.st0{clip-path:url(#SVGID_2_);}
	.st1{fill:#FFFFFF;}
</style>
<g>
	<defs>
		<rect id="SVGID_1_" width="23" height="23"/>
	</defs>
	<clipPath id="SVGID_2_">
		<use xlink:href="#SVGID_1_"  style="overflow:visible;"/>
	</clipPath>
	<g class="st0">
		<g>
			<path class="st1" d="M13.5,19.8c-0.5,0.3-1,0.2-1.5-0.1l-6.2-4.1H3.5c-0.6,0-1.1-0.5-1.1-1H2c-1.1,0-2-0.9-2-2v-2.2
				c0-1.1,0.9-2,2-2h0.3c0-0.6,0.5-1,1.1-1h2.3L12,3.3C12.2,3.1,12.5,3,12.8,3c0.2,0,0.5,0.1,0.7,0.2c0.5,0.3,0.8,0.7,0.8,1.3v14.1
				C14.2,19.1,13.9,19.6,13.5,19.8z M2.3,9.6H2c-0.5,0-0.9,0.4-0.9,0.9v2.2c0,0.5,0.4,0.9,0.9,0.9h0.3V9.6z M5.4,8.5H3.5
				c0,0,0,0,0,0v6c0,0,0,0,0,0h1.9V8.5z M13.1,4.4c0-0.2-0.1-0.2-0.2-0.3c0,0-0.2-0.1-0.3,0l-6.1,4v6.5l6.1,4c0.1,0.1,0.3,0,0.3,0
				c0,0,0.2-0.1,0.2-0.3V4.4z"/>
			<path class="st1" d="M12.8,20.2c-0.3,0-0.7-0.1-0.9-0.3l-6.1-4.1H3.5c-0.6,0-1.2-0.4-1.4-1H2c-1.2,0-2.3-1-2.3-2.3v-2.2
				c0-1.2,1-2.3,2.3-2.3h0.1c0.2-0.6,0.7-1,1.4-1h2.3L11.8,3C12.3,2.7,13,2.7,13.6,3c0.5,0.3,0.9,0.9,0.9,1.5v14.1
				c0,0.6-0.3,1.2-0.9,1.5C13.3,20.2,13,20.2,12.8,20.2z M2,8.7c-1,0-1.8,0.8-1.8,1.8v2.2c0,1,0.8,1.8,1.8,1.8h0.6l0,0.2
				c0,0.5,0.4,0.8,0.9,0.8h2.4l6.2,4.2c0.4,0.2,0.8,0.3,1.2,0.1c0.4-0.2,0.6-0.6,0.6-1V4.4c0-0.4-0.2-0.8-0.6-1
				c-0.4-0.2-0.9-0.2-1.2,0.1L5.9,7.6H3.5C3,7.6,2.6,8,2.6,8.4l0,0.2H2z M12.8,19.1c-0.1,0-0.2,0-0.3-0.1l-6.2-4.1V8.1L12.5,4
				c0.2-0.1,0.4-0.1,0.6,0c0.2,0.1,0.3,0.3,0.3,0.5v14.1c0,0.2-0.1,0.4-0.3,0.5C13,19.1,12.9,19.1,12.8,19.1z M6.8,14.6l5.9,4l0.1,0
				V4.4c0,0,0,0,0,0l-6,4V14.6z M5.7,14.8H3.2l0-0.3V8.3l0.3,0h2.2V14.8z M3.7,14.2h1.4V8.8H3.7V14.2z M2.6,13.7H2
				c-0.6,0-1.1-0.5-1.1-1.1v-2.2c0-0.6,0.5-1.1,1.1-1.1h0.6V13.7z M2,9.8c-0.3,0-0.6,0.3-0.6,0.6v2.2c0,0.3,0.3,0.6,0.6,0.6h0.1
				L2,9.8L2,9.8z"/>
		</g>
		<g>
			<path class="st1" d="M20,18.7c-0.2,0.2-0.5,0.2-0.7,0c-0.2-0.2-0.2-0.5,0-0.7c1.7-1.7,2.7-4,2.7-6.5C22,9,21,6.7,19.3,5
				c-0.2-0.2-0.2-0.5,0-0.7c0.1-0.1,0.2-0.1,0.4-0.1c0.1,0,0.3,0,0.4,0.1c1.9,1.9,3,4.5,3,7.2C23,14.2,21.9,16.8,20,18.7z"/>
			<path class="st1" d="M19.7,19.1C19.7,19.1,19.7,19.1,19.7,19.1c-0.2,0-0.4-0.1-0.5-0.2c-0.1-0.1-0.2-0.3-0.2-0.5
				c0-0.2,0.1-0.4,0.2-0.5c1.7-1.7,2.6-3.9,2.6-6.3c0-2.4-0.9-4.6-2.6-6.3C19,5,18.9,4.9,18.9,4.7c0-0.2,0.1-0.4,0.2-0.5
				c0.3-0.3,0.8-0.3,1.1,0c2,2,3.1,4.6,3.1,7.4c0,2.8-1.1,5.4-3.1,7.4l0,0l0,0C20.1,19,19.9,19.1,19.7,19.1z M19.7,4.4
				c-0.1,0-0.1,0-0.2,0.1c-0.1,0.1-0.1,0.3,0,0.4c1.8,1.8,2.8,4.1,2.8,6.7s-1,4.9-2.8,6.7c0,0-0.1,0.1-0.1,0.2c0,0.1,0,0.1,0.1,0.2
				s0.1,0.1,0.2,0.1l0,0c0.1,0,0.1,0,0.2-0.1l0,0c1.9-1.9,2.9-4.4,2.9-7c0-2.7-1-5.2-2.9-7C19.8,4.4,19.7,4.4,19.7,4.4z"/>
		</g>
		<g>
			<path class="st1" d="M17.2,15.9c-0.2,0.2-0.5,0.2-0.7,0c-0.2-0.2-0.2-0.5,0-0.7c1-1,1.5-2.3,1.5-3.7s-0.5-2.7-1.5-3.7
				c-0.2-0.2-0.2-0.5,0-0.7c0.1-0.1,0.2-0.1,0.4-0.1c0.1,0,0.3,0,0.4,0.1c1.2,1.2,1.8,2.7,1.8,4.4C19,13.2,18.4,14.7,17.2,15.9z"/>
			<path class="st1" d="M16.8,16.3L16.8,16.3c-0.2,0-0.4-0.1-0.5-0.2c-0.1-0.1-0.2-0.3-0.2-0.5c0-0.2,0.1-0.4,0.2-0.5
				c0.9-0.9,1.4-2.2,1.4-3.5S17.2,8.9,16.3,8c-0.1-0.1-0.2-0.3-0.2-0.5s0.1-0.4,0.2-0.5c0.3-0.3,0.8-0.3,1.1,0
				c1.2,1.2,1.9,2.8,1.9,4.6s-0.7,3.4-1.9,4.6C17.2,16.2,17,16.3,16.8,16.3z M16.8,7.2c-0.1,0-0.1,0-0.2,0.1c0,0-0.1,0.1-0.1,0.2
				s0,0.1,0.1,0.2c1,1,1.6,2.4,1.6,3.9c0,1.5-0.6,2.8-1.6,3.9c0,0-0.1,0.1-0.1,0.2c0,0.1,0,0.1,0.1,0.2s0.1,0.1,0.2,0.1l0,0
				c0.1,0,0.1,0,0.2-0.1l0,0c1.1-1.1,1.7-2.6,1.7-4.2c0-1.6-0.6-3.1-1.7-4.2C17,7.2,16.9,7.2,16.8,7.2z"/>
		</g>
	</g>
</g>
</svg>
